<svg xmlns="http://www.w3.org/2000/svg" version="1.0" viewBox="0 0 727 404">
    <g stroke-width="0">
        <path
            d="M45 207.5V366h146V49H45zM145.3 73.8c4.7 2.1 8.7 6.9 8.7 10.4 0 2.2 2.3 2.3 4.1.2 3.9-4.7 14.3-7.2 19.2-4.5 4.9 2.6 7.3 12.7 4.7 19.5-.8 2.3-1.5 2.6-5.9 2.6h-5l.6-3.4c1.2-7.5-4.2-9.8-13.1-5.4-3.6 1.7-4.6 2.8-5.1 5.4-1.4 7.9-8.6 12.2-22.2 13.1l-8.3.6V95.1l7.8-.3c7.6-.3 7.7-.3 8-3 .5-4.4-3.6-5.5-12.3-3.1-1 .3-6.5 5-12.1 10.4-8.9 8.5-11 10-16 11.5-4.7 1.3-6.6 1.4-11.2.5-3-.6-6.9-1.9-8.6-2.9-8.4-4.8-10.3-22.1-3.2-30.1 3.1-3.5 9.4-6.1 14.9-6.1H95v15.6l-4.2 1c-4.7 1-6.2 4-3.4 6.3 2.9 2.5 6.9.1 16.4-9.5 12.7-12.9 16.2-14.6 28.8-14 5.3.2 9.7 1.1 12.7 2.4M154 123v8h-4.2c-8 0-8.8.6-8.8 6.1v4.9h4.9c8 0 8.1.1 8.1 9.1v7.9l-3.7-.5c-4.2-.6-75.1-7.5-77-7.5-1 0-1.3-3.5-1.3-14 0-7.7.1-14 .3-14.1.7-.2 75.7-7.7 78.5-7.8l3.2-.1zm-9.6 43c8.4 4.2 9 5.8 9.4 23.1l.3 14.9H72v-13.8c.1-26.2 1.7-27.1 47-26.8 19.8.1 20.7.2 25.4 2.6m-44.6 52.1.3 7.7-6.1.4c-3.3.2-6.5.9-7.1 1.5-1.7 1.7-.2 6 2.3 6.7 3.8 1 45.5.7 48.2-.4 3.2-1.2 3.4-4.3.4-6.4-1.6-1.1-4.6-1.6-10-1.6-7.7 0-7.8 0-7.8 2.5 0 2.4-.2 2.5-7 2.5h-7v-21h48v3.5c0 2.9-.5 3.8-2.7 4.7-3.9 1.7-3.9 1.7-1.4 3.5 3 2 5.1 7.2 5.1 12.3 0 4.7-1.1 7.3-4.8 11.3-4.6 4.9-9.9 5.7-37.7 5.7-26 0-29.3-.4-34.9-4.3-7.6-5.3-9-22.4-2.4-29.5 4.3-4.5 12.4-7.2 20.8-6.9l3.5.2zm-38.9-3.3c3.9 2.8 6.2 10.4 5.7 17.9-.8 10.3-4.5 15.2-12.1 16l-4.5.6v-6c0-5.4.2-6.1 2.5-7.1 4.5-2.1 4.5-9.3-.1-11.4-2.1-1-2.4-1.8-2.4-7.1v-6l4.2.6c2.3.3 5.3 1.4 6.7 2.5m92.9 48.9-.3 7.8-6 .5-6 .5v10l6.3.3 6.2.3v16.5l-22.7-2.2c-12.6-1.3-31-3-41.1-4l-18.3-1.7.3-14.1.3-14.1 36.5-3.6c20.1-2 38.4-3.7 40.8-3.8l4.3-.1zM104 311v8l-6.2.1c-8 .1-11.2 1-11.6 3.2-.9 4.4.7 4.7 26.2 4.7 13.2 0 24.7-.4 25.4-.9.8-.4 1.2-1.9 1-3.2-.4-2.9-3-3.7-13-3.8l-7.8-.1v-16h11.3c9.7 0 11.9.3 15.7 2.2 4.9 2.5 9 7.7 9 11.4 0 3 .5 3 4.4-.3 4.1-3.5 8.7-5.3 13.3-5.3 8.7 0 13 8.1 10.7 19.9-.6 3-.8 3.1-5.9 3.1h-5.3l.5-3.8c.7-5.4-1.6-7.6-7-6.8-6.6 1.1-9.3 3.1-12 9-2 4.3-3.5 6-7.3 8.2l-4.9 2.9H114c-29.2 0-33-.6-38.2-6.3-4.7-5.1-6.2-14.6-3.4-22.5 3.1-8.6 8.9-11.6 22.4-11.7h9.2z" />
        <path
            d="M105.8 134.8c-9.8.8-17.8 1.8-17.8 2.2 0 .5 30.4 3 37.3 3 2.4 0 2.7-.4 2.7-3.5 0-3-.3-3.5-2.2-3.4-1.3.1-10.3.9-20 1.7m-18.2 46.5c-1.1.8-1.7 2.3-1.4 3.8l.3 2.4 26.3.3 26.2.2v-2.8c0-1.5-.5-3.3-1.2-4-1.8-1.8-47.7-1.7-50.2.1m16.1 94.5c-9.2.8-16.5 1.7-16.3 2 .5.4 31.2 3.1 37.4 3.2 3 0 3.2-.2 3.2-3.5 0-4.1 1.6-4-24.3-1.7M246 100.4c-15.7 3.5-24.4 12.3-29.6 30.1-1.5 5.3-1.8 12-2.1 57-.3 34.9-.1 53 .7 57.5 1.3 7.7 4.7 15.6 9.2 21.2 4.1 5.3 13.4 11.3 19.7 12.8 4.4 1 5.1 1.6 7.5 6 5.9 10.9 8.2 22.5 5.5 28.4-1.7 3.7-7.8 6-13.9 5.2-2.8-.4-5.7-.9-6.5-1.3-1.4-.5-1.5 1-1.3 10.7l.3 11.3 4.5 1.5c2.6.8 8.6 1.5 14.5 1.5 11.8.1 18.3-2.1 23.9-8.3 4.6-5.1 5.9-9.7 5.4-18.9-.6-9.6-5.2-19.9-12.9-28.4-2.8-3.2-5-5.9-4.8-6.1.2-.1 3.3-1 6.9-2 16.7-4.5 25.6-15.2 28-34 .5-3.9 1-14.9 1-24.4V203h-36v18.6c0 15.1-.3 19.2-1.6 22-2.6 5.5-9.1 6-12.8 1.1-2.1-2.8-2.1-3.6-2.1-54.7s0-51.9 2.1-54.7c2.2-3 5-3.9 9.1-2.8 4.3 1 5.3 5.6 5.3 23.5v16h35v-19.3c-.1-20.2-.6-24.8-4.2-32.5-7.5-15.8-29.8-24.5-50.8-19.8m186-.8c-13.5 2.6-22.8 9.2-28 19.7-6 12.2-6.3 15.4-6.7 68.9-.5 53.2 0 59.7 5.2 70.3 4.7 9.7 14.3 17.5 25.2 20.4 4.6 1.3 7.3 5 11.2 15.4 2.5 6.9 2.8 17.2.6 20.4-2.8 4-13 5.4-20 2.6-1.4-.5-1.5 1-1.3 10.7l.3 11.3 4.5 1.3c15.8 4.7 33.4 1.3 40-7.8 1.6-2.2 3.4-6.3 4-9.2 2.2-10.8-3.3-26.2-13.1-37-2.8-3.1-5-5.8-4.8-6s2.8-.9 5.7-1.5c16-3.4 26.7-15.3 29.2-32.6.5-3.9 1-15.2 1-25.3V203h-35.5v17.8c0 9.7-.3 18.9-.8 20.5-1.8 6.6-8.7 8.8-13.2 4.2l-2.5-2.4V136.9l2.5-2.4c2.8-2.9 7-3.2 10.2-1 3.1 2.1 4.3 9.4 4.3 25.1V172l17.3-.2 17.2-.3-.1-19.6c-.1-16-.4-20.6-1.9-25.4-5.3-16.7-18.9-26.2-39-27-4.9-.2-10.1-.1-11.5.1m-117.5 1.6c-.3.7-.4 40.7-.3 88.8l.3 87.5h72v-34l-18.2-.3-18.3-.2v-41h33l-.2-16.3-.3-16.2-16.2-.3-16.3-.2v-34l17.3-.2 17.2-.3v-34l-34.8-.3c-27.3-.2-34.9 0-35.2 1m183 0c-.3.7-.4 40.7-.3 88.8l.3 87.5h72v-34l-18.3-.3-18.2-.2.2-20.3.3-20.2 16.3-.3 16.2-.2-.2-16.3-.3-16.2-16.2-.3-16.3-.2v-34h35v-35h-35c-27.1 0-35.2.3-35.5 1.2m85 0c-.3.7-.4 40.7-.3 88.8l.3 87.5h34l.5-40.5c.3-22.3.7-40.3.9-40s4 18.5 8.5 40.5l8.2 40h33.9v-177h-33l-.3 39.2c-.1 21.6-.6 39.3-1 39.3-.5 0-4.1-17.4-8.2-38.8-4-21.3-7.8-39-8.4-39.4s-8.7-.8-17.9-.8c-12.5 0-16.9.3-17.2 1.2" />
    </g>
    <path fill-opacity=".6"
        d="M449.3 152.5c0 4.4.2 6.1.4 3.7.2-2.3.2-5.9 0-8-.2-2-.4-.1-.4 4.3m117 31.5c0 4.7.2 6.6.4 4.2.2-2.3.2-6.1 0-8.5-.2-2.3-.4-.4-.4 4.3m-.1 14c0 1.4.2 1.9.5 1.2.2-.6.2-1.8 0-2.5-.3-.6-.5-.1-.5 1.3m-116.8 22.5c0 6.6.1 9.2.3 5.7.2-3.4.2-8.8 0-12-.2-3.1-.3-.3-.3 6.3" />
    <path fill-opacity=".9"
        d="M449 280.9c0 .6.4 1.3 1 1.6s.7-.1.4-.9c-.7-1.8-1.4-2.1-1.4-.7" />
    <path fill-opacity=".9"
        d="m107.4 81.2-1.9 2.3 2.3-1.9c2.1-1.8 2.7-2.6 1.9-2.6-.2 0-1.2 1-2.3 2.2" />
    <path fill-opacity=".4"
        d="M249.5 188c0 24.5.1 34.5.2 22.3.2-12.3.2-32.3 0-44.5-.1-12.3-.2-2.3-.2 22.2m208.3 14.7c1.2.2 3.2.2 4.5 0 1.2-.2.2-.4-2.3-.4s-3.5.2-2.2.4" />
    <path fill-opacity=".5"
        d="M277.8 202.7c3.4.2 8.8.2 12 0 3.1-.2.3-.3-6.3-.3s-9.2.1-5.7.3m190 0c2.3.2 6.1.2 8.5 0 2.3-.2.4-.4-4.3-.4s-6.6.2-4.2.4M234.4 328c0 5.2.1 7.4.3 4.7.2-2.6.2-6.8 0-9.5-.2-2.6-.3-.4-.3 4.8" />
    <path fill-opacity=".8"
        d="M99.3 218.5c0 2.2.2 3 .4 1.7.2-1.2.2-3 0-4-.3-.9-.5.1-.4 2.3" />
    <path fill-opacity=".7"
        d="M449.3 164c0 2.5.2 3.5.4 2.2.2-1.2.2-3.2 0-4.5-.2-1.2-.4-.2-.4 2.3m116.9 30c0 1.4.2 1.9.5 1.2.2-.6.2-1.8 0-2.5-.3-.6-.5-.1-.5 1.3" />
</svg>